<?xml version="1.0" encoding="UTF-8" standalone="no"?>
<!-- Created with Inkscape (http://www.inkscape.org/) -->

<svg
   width="210mm"
   height="297mm"
   viewBox="0 0 210 297"
   version="1.1"
   id="svg1"
   xml:space="preserve"
   inkscape:version="1.3 (0e150ed6c4, 2023-07-21)"
   sodipodi:docname="abstract.svg"
   xmlns:inkscape="http://www.inkscape.org/namespaces/inkscape"
   xmlns:sodipodi="http://sodipodi.sourceforge.net/DTD/sodipodi-0.dtd"
   xmlns="http://www.w3.org/2000/svg"
   xmlns:svg="http://www.w3.org/2000/svg"><sodipodi:namedview
     id="namedview1"
     pagecolor="#ffffff"
     bordercolor="#000000"
     borderopacity="0.25"
     inkscape:showpageshadow="2"
     inkscape:pageopacity="0.0"
     inkscape:pagecheckerboard="0"
     inkscape:deskcolor="#d1d1d1"
     inkscape:document-units="mm"
     inkscape:zoom="0.69219276"
     inkscape:cx="418.2361"
     inkscape:cy="561.25984"
     inkscape:window-width="1920"
     inkscape:window-height="991"
     inkscape:window-x="-9"
     inkscape:window-y="-9"
     inkscape:window-maximized="1"
     inkscape:current-layer="layer1" /><defs
     id="defs1" /><g
     inkscape:label="Layer 1"
     inkscape:groupmode="layer"
     id="layer1"><path
       id="rect2"
       style="fill:#000000;stroke:#000000;stroke-width:0.1;stroke-linecap:round"
       d="M -32.108118 14.142806 L -32.108118 293.94226 L 247.69134 293.94226 L 247.69134 14.142806 L -32.108118 14.142806 z M 93.300248 104.37761 C 94.493037 104.42421 96.249816 104.62118 99.219784 104.99411 C 106.43081 105.89959 116.64776 107.31864 117.63778 107.55209 C 117.96223 107.62859 115.83815 107.67731 112.91817 107.66061 C 107.14515 107.62751 85.70878 107.15268 85.38962 107.05083 C 85.09017 106.95523 88.910228 105.25872 90.764486 104.6639 C 91.478675 104.4348 92.107479 104.33105 93.300248 104.37761 z M 101.76898 110.65991 C 101.85498 110.74591 100.992 111.00933 99.85127 111.24541 C 97.906761 111.64785 95.384635 112.18867 86.765763 114.05195 C 84.819085 114.47279 80.683564 115.35778 77.575627 116.01876 C 70.976063 117.42233 71.625085 117.34692 71.625085 116.71432 C 71.625085 116.11986 74.696477 113.46771 76.020166 112.91921 C 76.522956 112.71085 80.562257 112.26113 84.996362 111.91978 C 89.430458 111.57843 94.983163 111.12004 97.335661 110.90124 C 99.688158 110.68241 101.68298 110.57391 101.76898 110.65991 z M 118.29304 110.92863 C 119.99778 110.92863 120.39058 111.05242 120.39058 111.59112 C 120.39058 111.95566 121.19369 120.2964 122.17497 130.12591 C 123.1563 139.95542 123.89498 148.06201 123.81673 148.14031 C 123.73843 148.21861 123.38683 146.82393 123.03538 145.04128 C 122.68392 143.25857 121.31635 136.84471 119.99629 130.7884 C 116.15476 113.16379 115.78332 111.3408 115.99499 111.12913 C 116.10528 111.01881 117.13945 110.92863 118.29304 110.92863 z M 110.74104 111.91152 L 115.35937 125.84968 C 117.89949 133.51553 119.92887 139.83667 119.86917 139.89637 C 119.74249 140.02304 114.09432 128.12201 109.88322 118.85528 C 108.27668 115.32004 107.02681 112.3629 107.10561 112.2841 C 107.18441 112.2053 108.03454 112.08934 108.9949 112.02624 L 110.74104 111.91152 z M 126.48737 112.17248 C 126.66516 111.99468 131.79101 113.15287 132.07256 113.43442 C 132.24245 113.6043 130.20079 130.24655 128.66501 141.20999 C 127.91351 146.57487 127.48792 149.79097 127.05219 153.40149 C 126.8042 155.45633 126.48717 157.4518 126.34733 157.83584 C 126.20749 158.21988 126.14999 148.13437 126.21969 135.42378 C 126.28939 122.71322 126.40977 112.25008 126.48737 112.17248 z M 102.25939 114.1429 C 102.79008 114.0699 103.18602 114.50897 103.77093 115.54954 C 104.22688 116.36061 106.74246 120.54339 109.36128 124.84458 C 111.98006 129.14571 114.0528 132.73472 113.9672 132.82032 C 113.8816 132.90592 113.54513 132.56961 113.21945 132.07256 C 112.89377 131.57551 110.43574 128.4287 107.75725 125.0797 C 105.07874 121.73076 102.27851 118.21433 101.53489 117.26571 L 100.18303 115.54075 L 101.0884 114.80798 C 101.57384 114.41489 101.94099 114.1867 102.25939 114.1429 z M 140.23795 114.82452 C 140.5502 114.83052 141.1267 115.2477 142.0673 116.134 C 145.40309 119.27714 145.32115 119.00696 144.02273 122.55841 C 142.71555 126.13387 140.34476 132.54004 135.15506 146.51922 C 133.14758 151.92669 130.30855 159.58107 128.8464 163.52852 C 126.3146 170.3637 125.57692 172.02071 126.13184 169.62427 C 127.34112 164.40204 139.79684 115.33556 140.01006 114.95422 C 140.05906 114.86662 140.13387 114.82265 140.23795 114.82452 z M 96.457678 114.84519 C 96.564048 114.84019 96.597393 114.86133 96.570333 114.90513 C 96.451683 115.09712 96.164519 115.25446 95.932129 115.25446 C 95.699729 115.25446 94.312301 115.86425 92.849113 116.60994 C 90.617415 117.74723 84.810281 120.42043 75.95092 124.38776 C 74.977571 124.82364 73.882359 125.33616 73.51696 125.52722 C 72.72734 125.94011 72.568909 125.73456 72.21213 123.83275 L 71.941345 122.3884 L 79.353296 120.02885 C 91.401174 116.19339 95.713119 114.87915 96.457678 114.84519 z M 97.197168 117.82278 L 104.17142 124.79755 C 108.00734 128.63347 111.05824 131.77022 110.95085 131.76922 C 110.84346 131.76822 108.98592 130.32969 106.82294 128.57355 C 104.65995 126.81741 101.24186 124.04739 99.227535 122.41785 L 95.565226 119.45472 L 96.381197 118.63875 L 97.197168 117.82278 z M 91.083329 120.0304 C 91.176329 120.1234 87.694333 123.02436 83.345817 126.47703 C 78.997311 129.92975 75.300968 132.80996 75.131848 132.87716 C 74.759889 133.025 73.984631 131.6568 73.984631 130.85248 C 73.984631 130.21384 77.52882 127.8565 84.996362 123.52838 C 87.70007 121.96131 90.137486 120.49501 90.413086 120.27018 C 90.688686 120.04532 90.990329 119.9374 91.083329 120.0304 z M 67.006246 121.54659 C 67.398596 121.54659 67.208406 139.27019 66.654846 154.28671 C 66.380776 161.72158 66.56064 161.42249 63.219914 159.98662 L 61.304268 159.16289 L 61.514075 156.57752 C 61.629595 155.15533 62.10227 151.15977 62.56414 147.69899 C 63.763309 138.71382 64.871894 130.17024 65.371204 126.06931 C 65.789433 122.63424 66.182687 121.54659 67.006246 121.54659 z M 93.670251 121.9879 C 94.292841 122.0332 95.615859 122.8423 99.090076 125.15308 C 102.04512 127.11858 104.63101 128.88057 104.83649 129.06912 C 105.04212 129.25766 105.13068 129.40689 105.03338 129.40089 C 104.65208 129.37669 93.502123 123.52406 93.131783 123.15372 C 92.868723 122.89064 92.900205 122.56351 93.227384 122.16929 C 93.332984 122.04205 93.462722 121.97279 93.670251 121.9879 z M 91.838839 125.87294 C 92.097688 125.87294 99.336919 128.69199 99.514339 128.8619 C 99.812449 129.14739 98.99562 128.96225 95.319763 127.91106 C 93.189495 127.30191 91.681742 126.66383 91.681742 126.37161 C 91.681742 126.09715 91.752439 125.87294 91.838839 125.87294 z M 87.644263 126.0073 C 88.170122 125.8474 85.96299 128.67398 80.969735 134.81968 C 79.695636 136.38784 78.603709 137.67067 78.543009 137.67067 C 78.48231 137.67067 78.100285 137.30363 77.693966 136.8547 C 76.960036 136.04371 76.984396 136.00943 81.482882 131.64364 C 85.172798 128.06262 87.235253 126.13166 87.644263 126.0073 z M 88.630766 128.0356 C 88.838766 127.8193 88.045275 129.58888 86.867566 131.96817 C 85.689857 134.34745 84.235214 137.31217 83.635205 138.55588 C 83.035206 139.7996 82.432075 140.80282 82.295235 140.78572 C 81.670956 140.70782 81.063269 140.32722 81.063269 140.01419 C 81.063269 139.65548 87.970316 128.72235 88.630766 128.0356 z M 151.45742 128.48208 C 151.95898 129.00671 154.14566 133.45144 154.76368 135.20312 L 155.3161 136.76891 L 145.69808 151.27914 C 140.40813 159.25982 132.88093 170.61193 128.97094 176.50602 C 125.06101 182.40016 121.7935 187.22268 121.7104 187.22268 C 121.6273 187.22268 128.21317 173.92964 136.34568 157.68236 C 144.47813 141.43514 151.27847 128.29493 151.45742 128.48208 z M 92.450171 129.27273 C 93.3782 129.30133 94.607487 129.4832 95.811206 129.80861 C 96.706285 130.05058 96.255381 130.13621 93.943103 130.16311 C 91.599755 130.19041 90.895227 130.07361 90.895227 129.6572 C 90.895227 129.36894 91.522132 129.24409 92.450171 129.27273 z M 69.381812 129.32182 C 69.409211 129.23932 69.498856 129.48181 69.667065 130.00188 C 69.876945 130.65078 70.76568 134.5444 71.642139 138.65407 C 72.518588 142.76369 74.023688 149.70591 74.986637 154.08103 C 75.949586 158.45621 76.737435 162.30521 76.737435 162.63452 C 76.737435 162.96384 76.604592 163.21426 76.442362 163.19056 C 75.372024 163.03419 72.675416 162.44875 72.578516 162.35185 C 72.463916 162.23725 72.049554 158.0516 70.444796 140.81673 C 70.011796 136.16631 69.573472 131.56537 69.471212 130.59203 C 69.389212 129.81191 69.354452 129.40429 69.381812 129.32182 z M 103.57817 130.68763 C 103.84854 130.77643 104.11939 131.27822 104.17969 131.80229 C 104.23999 132.32635 104.03882 134.34784 103.73269 136.29452 L 103.17613 139.83384 L 103.13117 135.17986 C 103.09697 131.61756 103.20187 130.56407 103.57817 130.68763 z M 100.5303 130.98529 C 100.85475 130.98529 101.12419 131.20635 101.12819 131.47673 C 101.13219 131.7471 101.30135 133.1123 101.50337 134.51014 C 101.89544 137.22307 101.81198 137.7839 101.18969 136.62112 C 100.89412 136.06885 99.94067 131.86136 99.94067 131.10983 C 99.94067 131.04143 100.20585 130.98529 100.5303 130.98529 z M 94.434546 131.41575 L 96.204464 131.44262 L 95.024691 131.94905 C 92.976523 132.8284 90.895227 133.06868 90.895227 132.42551 C 90.895227 131.73022 92.119118 131.38085 94.434546 131.41575 z M 106.66842 131.45916 C 106.79069 131.48146 106.94871 131.52706 107.11388 131.59042 C 107.64451 131.79404 107.62924 132.1062 106.97952 134.27191 C 106.11172 137.16441 104.15303 141.84353 104.40448 140.42347 C 104.63161 139.14077 106.3434 131.6071 106.4395 131.46743 C 106.4598 131.43783 106.54615 131.43718 106.66842 131.45968 L 106.66842 131.45916 z M 97.981616 132.41259 C 98.187546 132.44419 98.496177 132.83225 98.848747 133.5195 C 99.264206 134.32932 99.522028 135.07399 99.421838 135.17418 C 99.076249 135.51978 97.531678 132.95575 97.812118 132.50199 C 97.855817 132.43119 97.912976 132.40209 97.981616 132.41259 z M 88.434912 132.79034 C 88.620662 132.68479 88.290758 134.33181 87.552279 137.67067 C 87.011529 140.11542 86.569393 142.17742 86.569393 142.25282 C 86.569393 142.5379 85.426757 142.37577 85.233557 142.06316 C 85.122387 141.88329 85.568452 140.24604 86.224711 138.42514 C 87.5478 134.75412 88.249162 132.8959 88.434912 132.79034 z M 110.46251 133.35103 C 110.62346 133.35403 110.99418 133.50786 111.28571 133.69261 C 111.69856 133.95425 111.34392 134.80269 109.68323 137.52856 C 107.01385 141.91013 103.87325 146.60588 103.87325 146.21536 C 103.87325 145.6447 110.17325 133.34503 110.46251 133.35103 z M 94.154976 133.43992 C 94.442766 133.48512 94.497755 133.71145 94.252645 134.10809 C 93.873325 134.72184 91.824301 135.71568 91.534981 135.42636 C 91.025112 134.91649 91.329409 134.49249 92.659977 133.85798 C 93.346387 133.53065 93.867177 133.39471 94.154976 133.43992 z M 96.20033 133.90397 C 96.807979 133.92467 97.973865 134.82313 97.973865 135.3721 C 97.973865 135.88752 97.470862 135.75361 96.445793 134.96541 C 95.787853 134.45956 95.648525 134.15689 95.979154 133.95255 C 96.038154 133.91605 96.11352 133.90107 96.20033 133.90397 z M 89.715454 134.52461 C 89.952664 134.52461 90.108712 136.16336 90.108712 138.65407 C 90.108712 142.2259 90.021415 142.78353 89.461206 142.78353 C 88.894187 142.78353 88.845259 142.40891 89.067948 139.77441 C 89.207838 138.1196 89.322196 136.26121 89.322196 135.64495 C 89.322196 135.02869 89.499164 134.52461 89.715454 134.52461 z M 73.426009 135.00675 C 73.535859 135.09535 73.840458 135.72165 74.336548 136.87485 C 74.805237 137.96436 76.842542 142.35003 78.86392 146.62051 C 84.469334 158.46276 85.782878 161.31723 85.782878 161.6568 C 85.782878 161.82817 85.296109 162.0844 84.70129 162.22627 C 84.10646 162.36814 83.347944 162.56411 83.015605 162.66191 C 82.535985 162.80304 81.455995 159.99226 77.779749 149.03483 C 74.519152 139.3163 73.096439 134.74102 73.426009 135.00675 z M 95.417948 135.70438 C 95.742388 135.70438 96.007576 135.88134 96.007576 136.09764 C 96.007576 136.31394 95.742388 136.49089 95.417948 136.49089 C 95.093499 136.49089 94.827804 136.31394 94.827804 136.09764 C 94.827804 135.88134 95.093499 135.70438 95.417948 135.70438 z M 114.56252 136.21391 C 114.78208 136.26961 115.05571 136.49045 115.49734 136.90534 L 116.51899 137.86549 L 114.7656 139.43955 C 113.80134 140.30533 110.65602 143.22592 107.77585 145.92959 C 104.89573 148.63333 102.79514 150.48374 103.10792 150.042 C 103.82341 149.03153 113.24127 137.27991 113.95015 136.51311 C 114.17699 136.26773 114.34296 136.15823 114.56252 136.21391 z M 93.254773 136.49089 C 93.471073 136.49089 93.648031 136.84481 93.648031 137.27741 C 93.648031 137.71001 93.471073 138.06392 93.254773 138.06392 C 93.038473 138.06392 92.861515 137.71001 92.861515 137.27741 C 92.861515 136.84481 93.038473 136.49089 93.254773 136.49089 z M 90.850269 137.08104 L 91.450232 138.11508 C 91.780402 138.6839 92.167111 139.8785 92.309611 140.7697 C 92.524011 142.11049 92.458475 142.39028 91.928756 142.39028 C 91.438636 142.39028 91.287317 141.99817 91.283317 140.71854 C 91.280317 139.79927 91.181322 138.60467 91.063692 138.06392 L 90.850269 137.08104 z M 100.42074 138.45718 C 100.54279 138.45718 100.74446 138.72149 100.86826 139.04423 C 101.01511 139.42691 100.68729 139.84051 99.926717 140.23382 C 98.970088 140.72856 98.760897 140.74004 98.760897 140.2979 C 98.760897 139.7827 99.956041 138.45718 100.42074 138.45718 z M 93.805127 140.03021 C 94.524176 140.03021 95.350486 141.07576 95.035026 141.58619 C 94.625046 142.24956 94.19834 142.06375 93.719861 141.01361 C 93.361961 140.22806 93.378947 140.03021 93.805127 140.03021 z M 118.37365 141.21464 L 119.20616 142.38407 L 120.03867 143.55299 L 117.95352 144.88056 C 116.80652 145.61062 112.68254 148.02609 108.78923 150.24871 C 104.89585 152.47132 101.57722 154.36537 101.415 154.45827 C 101.25277 154.55157 101.12044 154.54885 101.12044 154.45155 C 101.12044 154.35455 105.00214 151.33657 109.74679 147.74499 L 118.37365 141.21464 z M 101.52145 141.33142 C 101.76396 141.36052 101.90696 141.43775 101.90696 141.56965 C 101.90696 141.81538 101.45305 142.18863 100.89823 142.39958 C 100.3434 142.61052 99.148805 142.76909 98.243616 142.75149 L 96.597721 142.71894 L 97.789897 142.19545 C 99.166645 141.59047 100.79378 141.24419 101.52145 141.33142 z M 78.883557 141.33556 C 78.901257 141.33056 78.935557 141.35277 78.987427 141.40687 C 79.494156 141.93539 91.830728 157.80107 92.201607 158.40118 C 92.386167 158.6998 92.0617 159.09769 91.321041 159.4807 C 90.675811 159.81436 90.092179 160.08739 90.024479 160.08739 C 89.890479 160.08739 80.026606 143.72191 79.148657 142.04301 C 78.926587 141.61831 78.830377 141.35137 78.883557 141.33556 z M 99.25234 144.02738 C 100.80261 143.98998 101.90696 144.12688 101.90696 144.35656 C 101.90696 144.57286 101.68537 144.72094 101.415 144.68574 C 101.14462 144.65044 99.950536 144.50235 98.760897 144.35656 L 96.597721 144.09146 L 99.25234 144.02738 z M 84.603105 144.94774 C 85.481944 145.47077 94.932023 152.86492 96.897961 154.56783 C 97.063041 154.71083 96.797346 155.19974 96.307817 155.65458 L 95.417948 156.48192 L 89.715454 150.53913 C 86.579137 147.27067 84.278655 144.75465 84.603105 144.94774 z M 93.375179 145.28519 C 93.460179 145.20019 95.281466 145.5517 97.422994 146.06654 C 100.21809 146.73851 101.35264 147.18402 101.44394 147.64577 C 101.51384 147.99955 101.33691 148.27082 101.05068 148.24832 C 100.25664 148.18602 93.198989 145.46137 93.375179 145.28519 z M 88.470569 145.33118 C 88.571939 145.27018 89.711962 145.80903 91.87863 146.93367 C 99.374602 150.82449 99.963618 151.1684 99.827498 151.57679 C 99.622039 152.19312 99.033611 152.22709 98.170752 151.67188 C 97.738162 151.39351 95.525901 149.99785 93.254773 148.57078 C 89.926476 146.47933 88.340229 145.40963 88.470569 145.33118 z M 121.04016 148.01525 C 121.3796 147.88499 121.78932 148.32343 122.16257 149.21673 C 122.48584 149.99042 122.75013 150.71122 122.75013 150.8187 C 122.75013 151.19711 121.13088 151.87288 117.53494 152.99428 C 115.53673 153.61742 109.83095 155.39751 104.85613 156.95011 C 94.628619 160.142 94.162486 160.27843 94.434546 160.00677 C 94.606306 159.83527 119.63579 148.55416 121.04016 148.01525 z M 157.55472 149.30458 L 157.6772 153.22114 C 157.7446 155.37526 157.6906 158.04274 157.55731 159.14894 C 157.32472 161.0786 157.15207 161.31797 153.30537 165.05194 C 147.92931 170.2705 130.05297 187.44192 123.88288 193.3143 C 121.15322 195.91223 118.89681 198.18113 118.86871 198.35637 C 118.84051 198.53162 117.62295 199.81034 116.16294 201.19754 C 113.81392 203.42936 112.52491 204.24445 112.52491 203.49869 C 112.52491 203.36584 113.3656 202.25892 114.39302 201.03889 C 115.42044 199.81886 116.43808 198.52917 116.65438 198.17292 C 116.99314 197.61499 122.37362 191.17868 137.97194 172.67163 C 139.88613 170.40049 145.07534 164.21407 149.50354 158.92363 L 157.55472 149.30458 z M 123.12168 156.32069 C 123.39747 156.4381 123.54131 156.95361 123.70304 158.17277 C 123.88372 159.53476 123.82604 160.30164 123.52889 160.48529 C 123.28434 160.63643 121.54911 160.87621 119.6728 161.01808 C 117.79649 161.15995 114.49153 161.45146 112.32854 161.66558 C 107.57508 162.13613 101.63591 162.70072 95.811206 163.23655 L 95.811206 163.23706 C 93.431938 163.45594 90.732898 163.74169 89.813639 163.87217 C 88.89437 164.00267 88.142424 164.01835 88.142424 163.90731 C 88.142424 163.69847 88.824723 163.54335 101.31681 160.91421 C 117.48583 157.51119 122.18565 156.50738 122.79664 156.32483 C 122.92351 156.28693 123.02974 156.28139 123.12168 156.32069 z M 60.526538 165.6147 C 61.394877 165.5771 119.16526 179.63916 119.55653 179.98333 C 119.63853 180.05543 119.07197 181.44835 118.29769 183.07875 C 117.12622 185.54549 116.73814 186.03587 115.98569 186.00157 C 115.48835 185.97887 111.8073 184.74199 107.80582 183.2529 C 99.260868 180.07305 99.229452 180.06174 82.439929 173.91962 C 64.053138 167.1931 59.953929 165.6395 60.526538 165.6147 z M 75.948336 166.11854 C 76.481015 166.07314 78.227247 166.11251 81.653414 166.19761 C 85.54677 166.29401 95.81096 166.47013 104.46287 166.58931 C 113.11477 166.70848 120.85742 166.90282 121.66854 167.02081 C 123.34311 167.26439 123.48799 167.80943 122.70362 170.92445 C 122.2289 172.80994 122.2393 172.80617 119.21081 172.27166 C 118.23751 172.09987 114.52076 171.58092 110.95188 171.11824 C 107.38296 170.65556 103.3129 170.11775 101.90696 169.92348 C 100.50102 169.72921 97.846105 169.37314 96.007576 169.13231 C 94.169048 168.89149 91.51464 168.53614 90.108712 168.34218 C 88.702763 168.14822 85.959638 167.78383 84.01296 167.53293 C 82.066282 167.28204 79.146179 166.83957 77.52395 166.54952 C 76.096382 166.29427 75.415656 166.16396 75.948336 166.11854 z M 58.142187 167.56652 C 58.409397 167.25601 110.9402 193.67543 110.9462 194.12355 C 110.9492 194.35003 110.24148 195.22905 109.37317 196.07692 C 108.50487 196.92479 107.33057 198.28793 106.76351 199.10619 C 106.19645 199.92446 105.62405 200.59322 105.49124 200.59241 C 105.08127 200.59041 102.51918 198.98072 102.10333 198.46437 C 101.72222 197.99115 76.982261 181.83567 61.488236 171.94248 C 59.341789 170.57193 58.545951 169.821 58.302901 168.93594 C 58.124681 168.28704 58.052488 167.67081 58.142187 167.56652 z "
       inkscape:export-filename="gobo_abstract.png"
       inkscape:export-xdpi="348.46799"
       inkscape:export-ydpi="348.46799" /></g></svg>
