<?xml version="1.0" encoding="UTF-8" standalone="no"?>
<!-- Created with Inkscape (http://www.inkscape.org/) -->

<svg
   width="210mm"
   height="297mm"
   viewBox="0 0 210 297"
   version="1.1"
   id="svg1"
   xml:space="preserve"
   sodipodi:docname="spiral.svg"
   inkscape:version="1.3 (0e150ed6c4, 2023-07-21)"
   xmlns:inkscape="http://www.inkscape.org/namespaces/inkscape"
   xmlns:sodipodi="http://sodipodi.sourceforge.net/DTD/sodipodi-0.dtd"
   xmlns="http://www.w3.org/2000/svg"
   xmlns:svg="http://www.w3.org/2000/svg"><sodipodi:namedview
     id="namedview1"
     pagecolor="#ffffff"
     bordercolor="#000000"
     borderopacity="0.25"
     inkscape:showpageshadow="2"
     inkscape:pageopacity="0.0"
     inkscape:pagecheckerboard="0"
     inkscape:deskcolor="#d1d1d1"
     inkscape:document-units="mm"
     inkscape:zoom="0.69219276"
     inkscape:cx="418.2361"
     inkscape:cy="561.25984"
     inkscape:window-width="1920"
     inkscape:window-height="991"
     inkscape:window-x="-9"
     inkscape:window-y="-9"
     inkscape:window-maximized="1"
     inkscape:current-layer="layer1" /><defs
     id="defs1" /><g
     inkscape:label="Layer 1"
     inkscape:groupmode="layer"
     id="layer1"><path
       id="rect2"
       style="fill:#000000;stroke:#000000;stroke-width:0.1;stroke-linecap:round"
       d="M -17.583021,1.9111458 V 281.7106 H 262.21643 V 1.9111458 Z M 120.4468,89.36524 c 0.183,0.06099 -0.20251,0.44753 -0.8568,0.85886 -3.49686,2.19835 -7.93057,6.16818 -10.2588,9.186 -10.025834,12.99535 -8.82827,30.29908 2.93935,42.47648 1.01952,1.05503 1.78714,1.91823 1.70584,1.91823 -0.2015,0 -3.05165,-2.14477 -4.09226,-3.0794 -4.44051,-3.98827 -7.90276,-10.44085 -9.49606,-17.69814 -0.718846,-3.27429 -0.649714,-10.28024 0.13539,-13.7356 1.19391,-5.25455 3.38746,-9.9942 6.58617,-14.23014 2.78359,-3.68623 3.8173,-4.57362 5.73453,-4.92373 2.18181,-0.39842 7.19629,-0.90802 7.60264,-0.77256 z m 7.55302,0.20257 c 0.8101,0.0023 4.02107,0.5957 8.06152,1.48983 0.98945,0.21896 0.91487,0.53015 -0.17622,0.73484 -3.39147,0.63624 -9.53131,3.34873 -13.08187,5.77949 -4.64162,3.17772 -8.962,8.35709 -11.17555,13.39764 -3.78839,8.62665 -3.38601,18.88112 1.09554,27.92181 0.57201,1.15392 0.99456,2.14374 0.93896,2.19934 -0.18895,0.18895 -3.06313,-4.3478 -3.83078,-6.04666 -5.95448,-13.17772 -2.41659,-29.45653 8.56899,-39.42911 3.60501,-3.27258 8.01656,-6.05118 9.59941,-6.04718 z m -23.64506,3.07165 c 0.29687,0.03849 -0.13904,0.56439 -0.98134,1.62005 -5.282754,6.62097 -8.004072,13.46938 -8.317321,20.93103 -0.18009,4.2895 0.183276,7.06765 1.422135,10.87272 2.607538,8.00892 8.829426,15.18045 16.564366,19.09186 1.12756,0.57019 2.04965,1.09507 2.05,1.16633 0,0.17121 0.1362,0.207 -2.11667,-0.56017 -10.56944,-3.59922 -18.858385,-13.76253 -21.068993,-25.83305 -0.602759,-3.29329 -0.60446,-9.08491 -0.0031,-12.23904 0.54403,-2.85344 1.745563,-6.63925 2.936772,-9.25319 0.991889,-2.17655 1.420607,-2.49231 6.097301,-4.49223 2.09025,-0.89386 3.11997,-1.3428 3.41685,-1.30431 z m 38.9325,0.8294 1.9761,0.98289 c 2.10323,1.04591 6.34238,3.61278 6.34225,3.84059 -4e-5,0.07491 -1.93481,0.14238 -4.29948,0.15038 -6.27085,0.02047 -11.66467,1.19942 -16.38349,3.58066 -8.8378,4.45978 -15.06782,12.95102 -16.75195,22.8322 -0.46174,2.70916 -0.52911,9.00496 -0.12299,11.50782 0.15082,0.92766 0.21753,1.74256 0.14883,1.81126 -0.16998,0.16998 -1.11319,-2.93576 -1.51722,-4.99556 -0.4858,-2.47666 -0.42292,-8.37022 0.11886,-11.11818 1.38563,-7.02805 4.68312,-13.22767 9.68778,-18.21439 5.10268,-5.08439 11.27307,-8.36511 18.67637,-9.92911 z m -52.938367,7.03989 c 0.10109,8e-5 0.09712,0.11462 -0.0016,0.33641 -0.657059,1.47694 -2.265797,6.59881 -2.648417,8.43153 -0.593919,2.84483 -0.80385,8.7476 -0.410311,11.53934 1.277779,9.0646 6.196756,16.85434 13.781585,21.82399 3.50093,2.29383 6.69795,3.66914 10.84792,4.6669 1.81901,0.43733 3.66448,0.88792 4.10104,1.00097 1.09826,0.28438 -2.97058,0.26503 -4.89479,-0.0233 -4.01565,-0.60162 -9.3515,-2.74066 -12.987321,-5.2064 -7.712713,-5.23063 -12.857767,-12.89203 -14.839405,-22.09788 -0.480329,-2.23118 -0.582776,-3.54592 -0.578776,-7.47034 0.0024,-2.61937 0.118406,-5.23458 0.257866,-5.81153 0.20997,-0.86862 0.786512,-1.53828 3.35225,-3.89331 2.468352,-2.26563 3.716638,-3.29669 4.01991,-3.29643 z m 59.028427,1.34513 c 1.72769,-0.0568 3.4776,0.005 5.24568,0.18655 2.73881,0.28112 2.877,0.3731 6.45645,4.29742 3.16954,3.47488 3.17297,3.44731 -0.2868,2.22622 -4.36447,-1.54038 -7.13812,-2.07071 -11.70058,-2.23811 -7.40599,-0.27175 -12.84014,1.19218 -18.81539,5.06998 -5.56405,3.61095 -10.1971,9.67928 -12.52274,16.40158 -0.4531,1.30969 -1.11796,3.69094 -1.47743,5.29167 l -0.65319,2.91041 0.12403,-3.175 c 0.43236,-11.06684 7.94036,-21.97039 18.77868,-27.27068 4.68394,-2.2906 9.66824,-3.52979 14.85129,-3.70004 z m 0.74414,8.75967 c 5.27188,0.0158 10.68723,1.22213 16.03623,3.63234 1.35102,0.60876 1.5341,0.80464 2.55799,2.73782 0.99722,1.88281 2.99826,6.44883 2.99826,6.84144 0,0.0873 -0.80367,-0.48737 -1.78593,-1.27692 -9.66809,-7.77123 -21.45338,-10.30833 -31.94844,-6.87762 -5.91945,1.93501 -11.69829,6.06963 -15.57527,11.14351 -1.43966,1.88409 -4.13618,6.34389 -4.13618,6.84092 0,0.18078 -0.11906,0.40258 -0.26458,0.49248 -0.35367,0.21858 -0.35505,0.22639 0.35967,-1.87172 2.15204,-6.31751 6.52805,-11.83043 12.57855,-15.84555 5.86027,-3.88888 12.40158,-5.83695 19.1797,-5.8167 z m -70.951213,1.70533 c 0.0393,-2e-4 0.03163,1.45153 -0.01757,3.22616 -0.49942,18.00987 10.409257,31.9062 27.076903,34.49195 3.09837,0.48067 9.47059,0.41375 11.63392,-0.12196 0.57799,-0.14297 1.10056,-0.21046 1.16116,-0.14986 0.15773,0.15772 -1.11078,0.61835 -3.40237,1.23507 -2.67814,0.72076 -9.52395,0.90233 -12.54653,0.33279 -5.011271,-0.94427 -10.73627,-3.4043 -14.573266,-6.26163 -6.991253,-5.20624 -11.953317,-13.18304 -13.766085,-22.1294 l -0.434599,-2.14302 1.217497,-2.41432 c 1.059059,-2.09993 3.44542,-6.06478 3.65094,-6.06578 z m 68.991133,6.66471 c 1.45669,0.0192 2.91731,0.131 4.37027,0.33899 7.07533,1.01286 13.9767,4.28547 19.21485,9.11211 l 1.99264,1.83658 0.32712,2.20245 c 0.17986,1.21149 0.41183,3.36382 0.51521,4.78265 0.1034,1.41882 0.12539,2.57542 0.0491,2.57142 -0.0763,-0.004 -0.85286,-1.10074 -1.72599,-2.43654 -1.95149,-2.98561 -7.13706,-8.28913 -9.86193,-10.08621 -5.79341,-3.82082 -11.47541,-5.5852 -17.91932,-5.564 -8.44973,0.0278 -16.54631,3.4847 -22.93968,9.79424 -0.98942,0.97644 -1.79885,1.66304 -1.79885,1.52548 0,-0.13756 0.76107,-1.21303 1.69137,-2.38951 5.88117,-7.4376 15.88837,-11.8224 26.08522,-11.68766 z m -5.87665,7.18199 c 5.98398,-0.039 12.09931,1.4624 17.39067,4.45554 5.76553,3.26135 10.24575,7.75373 13.88391,13.92163 l 1.1374,1.92805 -0.31884,2.33267 c -0.17532,1.28297 -0.59832,3.43153 -0.94,4.77439 -0.34169,1.34286 -0.67924,2.4998 -0.75034,2.5709 -0.0711,0.0711 -0.21456,-0.26648 -0.31833,-0.74983 -0.43997,-2.04916 -2.01624,-6.3966 -3.13314,-8.64081 -4.17428,-8.38745 -10.59755,-14.22632 -18.65209,-16.95504 -7.74705,-2.62456 -16.78959,-1.96057 -24.80779,1.8216 -1.51683,0.71548 -2.68803,1.18824 -2.60293,1.05058 0.33548,-0.54281 3.49262,-2.49036 5.83684,-3.60082 4.04551,-1.91638 8.62044,-2.87855 13.27464,-2.90886 z m -70.02879,1.19321 c 0.131622,0.0547 0.288665,0.58718 0.641821,1.89394 4.536546,16.78623 18.367161,27.12503 34.296619,25.63771 4.48706,-0.41895 9.79749,-1.96506 13.16457,-3.83284 1.60192,-0.88861 1.66429,-0.60847 0.11576,0.51831 -3.16394,2.3022 -7.83386,4.23828 -12.14035,5.03329 -2.28492,0.42182 -6.72841,0.69977 -8.454783,0.52865 -6.470354,-0.64134 -12.469608,-2.78173 -17.583423,-6.27301 -5.252415,-3.5859 -11.917619,-11.93205 -11.917619,-14.92312 0,-1.19202 1.157829,-7.03456 1.630909,-8.22947 0.09778,-0.24697 0.167523,-0.38629 0.246496,-0.35346 z m 63.90359,4.19664 c 3.70877,-0.0106 7.59374,0.61312 11.00966,1.82986 2.71494,0.96706 7.15148,3.30933 9.33121,4.92683 6.90127,5.12114 11.81203,12.9974 13.61468,21.83536 l 0.47129,2.31046 -1.05317,2.11666 c -0.57933,1.16416 -1.64357,3.09894 -2.36471,4.29948 -0.72115,1.20055 -1.33301,2.18283 -1.35961,2.18281 -0.0266,-3e-5 -0.0556,-1.99433 -0.0636,-4.43177 -0.0219,-6.3807 -1.04486,-11.13227 -3.47163,-16.12614 -4.43183,-9.12 -12.80718,-15.36503 -22.9712,-17.12764 -3.68717,-0.63942 -10.11483,-0.50979 -13.22917,0.26665 -0.35064,0.0874 -0.28774,-0.006 0.18655,-0.27699 0.39368,-0.22483 1.99287,-0.71628 3.55379,-1.09244 1.95895,-0.47208 4.1206,-0.7068 6.34587,-0.71313 z m -6.08594,3.27732 c 4.86218,-0.054 10.7387,1.67513 15.41922,4.53719 4.92224,3.00988 9.36825,7.58894 12.23698,12.60285 2.11449,3.69565 3.92044,9.15073 4.30361,12.99869 0.0797,0.80037 0.21224,2.13339 0.29404,2.96261 0.0818,0.82922 0.0222,3.03187 -0.13229,4.89479 l -0.28061,3.38739 -2.83962,2.78898 c -3.15813,3.10202 -4.81174,4.42524 -4.43383,3.54758 0.77188,-1.79266 2.28846,-6.70423 2.69182,-8.71781 0.6643,-3.31681 0.66548,-10.25829 0.002,-13.30772 -2.86736,-13.18006 -12.34671,-22.17645 -26.39787,-25.05376 l -3.01171,-0.61702 z m -0.10283,2.20813 c 0.17691,-0.17691 3.60622,1.04586 5.23068,1.865 7.72645,3.89612 13.63881,10.86885 16.52199,19.48512 1.40449,4.19725 1.81321,7.24181 1.64797,12.26902 -0.15305,4.6564 -0.74677,7.67898 -2.2872,11.64167 -1.68459,4.33351 -1.69249,4.34304 -4.64933,5.86837 -2.59825,1.34034 -6.20634,2.83755 -6.20634,2.57504 0,-0.0726 0.6151,-0.87144 1.36684,-1.77457 2.67475,-3.21337 5.06021,-7.45719 6.52467,-11.60756 5.45151,-15.44997 -1.40851,-31.73279 -16.58349,-39.36246 -0.92423,-0.46468 -1.62869,-0.89673 -1.56579,-0.95963 z m 1.15962,2.5306 c 0.52365,0 4.60668,3.50256 5.93193,5.08858 5.37716,6.43524 7.98924,13.73765 7.97574,22.29734 -0.0141,8.91542 -3.32426,17.25359 -9.64385,24.29361 -1.33482,1.48698 -1.45334,1.55492 -3.36776,1.92236 -2.38841,0.45841 -7.67291,0.8606 -7.67291,0.58395 0,-0.10855 0.354,-0.38044 0.78651,-0.6041 1.63774,-0.84691 6.03857,-4.38581 7.97729,-6.41511 9.04093,-9.46328 11.71051,-22.20407 7.08329,-33.80517 -1.76526,-4.42578 -3.97466,-7.82923 -7.34167,-11.31094 -1.09063,-1.12779 -1.86847,-2.05052 -1.72857,-2.05052 z m 0.37568,3.09231 c 0.13348,0.0321 0.57002,0.57494 1.27951,1.62058 3.4045,5.01751 5.06171,10.73133 5.06171,17.45268 0,4.34687 -0.46197,7.3287 -1.71669,11.08201 -2.57744,7.71001 -7.30549,13.78726 -14.42289,18.5384 -1.09139,0.72855 -2.48584,1.57884 -3.09851,1.88929 -0.61267,0.31044 -1.32704,0.54794 -1.5875,0.52814 -1.44028,-0.10958 -6.99332,-1.23436 -8.21191,-1.66347 l -0.9927,-0.34985 1.19062,-0.29972 c 7.12892,-1.7938 13.12753,-5.03741 17.74206,-9.59425 6.5453,-6.46344 9.91654,-15.68652 9.02374,-24.68686 -0.46085,-4.64579 -1.74242,-9.14037 -3.72845,-13.07466 -0.50271,-0.99586 -0.67246,-1.47441 -0.53899,-1.44229 z m -61.212791,0.89349 c 0.11964,0.009 0.872407,1.0468 1.672766,2.30529 1.818358,2.85916 7.028493,8.20296 9.791651,10.04279 4.126776,2.7478 8.326579,4.47209 12.830224,5.26738 3.172827,0.56029 9.44227,0.35428 12.30312,-0.40411 6.16721,-1.63487 11.1603,-4.41002 15.64867,-8.69817 1.14317,-1.09219 2.07841,-1.90147 2.07841,-1.79834 0,0.3546 -2.49633,3.45634 -3.87417,4.81366 -4.27054,4.20694 -10.18094,7.28552 -16.37782,8.53074 -3.16341,0.63566 -7.930741,0.87646 -10.846878,0.54777 -5.173735,-0.58317 -11.005864,-2.7148 -15.427999,-5.63841 -2.828057,-1.86972 -6.564486,-5.01002 -6.765995,-5.68648 -0.57674,-1.93609 -1.396638,-9.31092 -1.031979,-9.28212 z m 60.174101,1.34359 c 0.0211,-0.031 0.0824,0.002 0.185,0.0956 0.16014,0.146 0.60704,1.39616 0.99322,2.77812 0.94181,3.37039 1.18044,9.2133 0.52968,12.96355 -0.50525,2.9117 -1.87127,7.16416 -3.07423,9.57048 -2.31619,4.63317 -6.79466,9.90775 -10.96521,12.91446 -3.85643,2.78024 -8.8142,4.95913 -13.8219,6.07456 -1.34453,0.29948 -2.538,0.54467 -2.65203,0.54467 -0.38835,0 -8.529218,-4.63494 -8.529198,-4.85603 1e-5,-0.0212 1.934772,-0.0497 4.299479,-0.0631 5.004709,-0.0285 8.028939,-0.49033 12.071099,-1.84278 10.99553,-3.67896 18.58804,-12.21351 21.09121,-23.70811 0.79687,-3.65905 0.75494,-11.82929 -0.0729,-14.18467 -0.0566,-0.16104 -0.0754,-0.25582 -0.0543,-0.2868 z m -1.46968,2.72748 c 0.0347,0.02 0.0772,0.0693 0.12816,0.14521 0.28963,0.43174 0.13565,3.60312 -0.30179,6.21771 -1.07261,6.41104 -4.65253,12.83892 -9.95753,17.87901 -5.02927,4.77812 -11.2676,7.91723 -18.04127,9.078 -1.652993,0.28326 -3.88357,0.41629 -6.614588,0.39429 -5.995514,-0.0482 -6.047267,-0.0624 -8.264095,-2.23552 -1.831658,-1.79557 -4.782284,-5.16595 -4.643644,-5.30459 0.03858,-0.0386 1.138647,0.32901 2.444295,0.81701 1.305649,0.488 3.802767,1.21825 5.549016,1.62264 2.868547,0.66432 3.634694,0.73373 7.9375,0.71933 4.447676,-0.0149 4.972396,-0.0707 7.937496,-0.84077 3.68123,-0.95601 8.02915,-3.00322 10.76886,-5.07101 4.82543,-3.642 8.54388,-8.62178 10.8908,-14.58361 0.83847,-2.12994 2.01816,-6.88705 2.02416,-8.16332 0.003,-0.53143 0.0386,-0.73433 0.14263,-0.67438 z m -1.80454,1.57355 c 0.0497,0.0497 -0.26835,1.07241 -0.70642,2.27273 -1.62673,4.45733 -3.93742,7.89021 -7.79124,11.57448 -5.10241,4.87794 -11.29181,7.96347 -18.3994,9.17154 -6.498084,1.10447 -14.015705,0.0816 -20.607529,-2.80345 l -2.463932,-1.07849 -1.444356,-2.98121 c -1.346809,-2.7803 -2.600399,-5.94227 -2.355929,-5.94227 0.0588,0 1.118753,0.8118 2.355412,1.80402 3.764406,3.02031 9.214896,5.77435 13.645162,6.89467 8.768301,2.21732 17.548922,0.79845 25.012942,-4.04213 4.36124,-2.82836 8.87732,-7.89099 11.64114,-13.04985 0.56301,-1.05089 1.06445,-1.86974 1.11415,-1.82004 z"
       inkscape:export-filename="gobo_spiral.png"
       inkscape:export-xdpi="348.46799"
       inkscape:export-ydpi="348.46799" /></g></svg>
